<?xml version="1.0" ?><svg data-name="Multimedia 3" height="60" id="Multimedia_3" viewBox="0 0 60 60" width="60" xmlns="http://www.w3.org/2000/svg"><title/><path d="M55,17V53a2.00588,2.00588,0,0,1-2,2H7a2.00588,2.00588,0,0,1-2-2V17Z" style="fill:#fff"/><path d="M53,52H7a2.00591,2.00591,0,0,1-2-2v3a2.00591,2.00591,0,0,0,2,2H53a2.00591,2.00591,0,0,0,2-2V50A2.00591,2.00591,0,0,1,53,52Z" style="fill:#2c4b75;opacity:0.2"/><path d="M53,56H7a3.00328,3.00328,0,0,1-3-3V17a.99942.99942,0,0,1,1-1H55a.99942.99942,0,0,1,1,1V53A3.00328,3.00328,0,0,1,53,56ZM6,18V53a1.00068,1.00068,0,0,0,1,1H53a1.00068,1.00068,0,0,0,1-1V18Z" style="fill:#6d6daa"/><rect height="6" style="fill:#eef6ff" width="6" x="8.99979" y="27"/><path d="M15,34H9a.99942.99942,0,0,1-1-1V27a.99942.99942,0,0,1,1-1h6a.99942.99942,0,0,1,1,1v6A.99942.99942,0,0,1,15,34Zm-5-2h4V28H10Z" style="fill:#6d6daa"/><rect height="6" style="fill:#eef6ff" width="6" x="14.99979" y="27"/><path d="M21,34H15a.99942.99942,0,0,1-1-1V27a.99942.99942,0,0,1,1-1h6a.99942.99942,0,0,1,1,1v6A.99942.99942,0,0,1,21,34Zm-5-2h4V28H16Z" style="fill:#6d6daa"/><rect height="6" style="fill:#eef6ff" width="6" x="20.99979" y="27"/><path d="M27,34H21a.99942.99942,0,0,1-1-1V27a.99942.99942,0,0,1,1-1h6a.99942.99942,0,0,1,1,1v6A.99942.99942,0,0,1,27,34Zm-5-2h4V28H22Z" style="fill:#6d6daa"/><rect height="6" style="fill:#eef6ff" width="6" x="26.99979" y="27"/><path d="M33,34H27a.99942.99942,0,0,1-1-1V27a.99942.99942,0,0,1,1-1h6a.99942.99942,0,0,1,1,1v6A.99942.99942,0,0,1,33,34Zm-5-2h4V28H28Z" style="fill:#6d6daa"/><rect height="6" style="fill:#eef6ff" width="6" x="32.99979" y="27"/><path d="M39,34H33a.99942.99942,0,0,1-1-1V27a.99942.99942,0,0,1,1-1h6a.99942.99942,0,0,1,1,1v6A.99942.99942,0,0,1,39,34Zm-5-2h4V28H34Z" style="fill:#6d6daa"/><rect height="6" style="fill:#ff9797" width="6" x="38.99979" y="27"/><path d="M45,34H39a.99942.99942,0,0,1-1-1V27a.99942.99942,0,0,1,1-1h6a.99942.99942,0,0,1,1,1v6A.99942.99942,0,0,1,45,34Zm-5-2h4V28H40Z" style="fill:#6d6daa"/><rect height="6" style="fill:#ff9797" width="6" x="44.99979" y="27"/><path d="M51,34H45a.99942.99942,0,0,1-1-1V27a.99942.99942,0,0,1,1-1h6a.99942.99942,0,0,1,1,1v6A.99942.99942,0,0,1,51,34Zm-5-2h4V28H46Z" style="fill:#6d6daa"/><rect height="6" style="fill:#eef6ff" width="6" x="8.99979" y="33"/><path d="M15,40H9a.99942.99942,0,0,1-1-1V33a.99942.99942,0,0,1,1-1h6a.99942.99942,0,0,1,1,1v6A.99942.99942,0,0,1,15,40Zm-5-2h4V34H10Z" style="fill:#6d6daa"/><rect height="6" style="fill:#eef6ff" width="6" x="14.99979" y="33"/><path d="M21,40H15a.99942.99942,0,0,1-1-1V33a.99942.99942,0,0,1,1-1h6a.99942.99942,0,0,1,1,1v6A.99942.99942,0,0,1,21,40Zm-5-2h4V34H16Z" style="fill:#6d6daa"/><rect height="6" style="fill:#97c1ff" width="6" x="20.99979" y="33"/><path d="M27,40H21a.99942.99942,0,0,1-1-1V33a.99942.99942,0,0,1,1-1h6a.99942.99942,0,0,1,1,1v6A.99942.99942,0,0,1,27,40Zm-5-2h4V34H22Z" style="fill:#6d6daa"/><rect height="6" style="fill:#eef6ff" width="6" x="26.99979" y="33"/><path d="M33,40H27a.99942.99942,0,0,1-1-1V33a.99942.99942,0,0,1,1-1h6a.99942.99942,0,0,1,1,1v6A.99942.99942,0,0,1,33,40Zm-5-2h4V34H28Z" style="fill:#6d6daa"/><rect height="6" style="fill:#eef6ff" width="6" x="32.99979" y="33"/><path d="M39,40H33a.99942.99942,0,0,1-1-1V33a.99942.99942,0,0,1,1-1h6a.99942.99942,0,0,1,1,1v6A.99942.99942,0,0,1,39,40Zm-5-2h4V34H34Z" style="fill:#6d6daa"/><rect height="6" style="fill:#ff9797" width="6" x="38.99979" y="33"/><path d="M45,40H39a.99942.99942,0,0,1-1-1V33a.99942.99942,0,0,1,1-1h6a.99942.99942,0,0,1,1,1v6A.99942.99942,0,0,1,45,40Zm-5-2h4V34H40Z" style="fill:#6d6daa"/><rect height="6" style="fill:#ff9797" width="6" x="44.99979" y="33"/><path d="M51,40H45a.99942.99942,0,0,1-1-1V33a.99942.99942,0,0,1,1-1h6a.99942.99942,0,0,1,1,1v6A.99942.99942,0,0,1,51,40Zm-5-2h4V34H46Z" style="fill:#6d6daa"/><rect height="6" style="fill:#eef6ff" width="6" x="8.99979" y="39"/><path d="M15,46H9a.99942.99942,0,0,1-1-1V39a.99942.99942,0,0,1,1-1h6a.99942.99942,0,0,1,1,1v6A.99942.99942,0,0,1,15,46Zm-5-2h4V40H10Z" style="fill:#6d6daa"/><rect height="6" style="fill:#eef6ff" width="6" x="14.99979" y="39"/><path d="M21,46H15a.99942.99942,0,0,1-1-1V39a.99942.99942,0,0,1,1-1h6a.99942.99942,0,0,1,1,1v6A.99942.99942,0,0,1,21,46Zm-5-2h4V40H16Z" style="fill:#6d6daa"/><rect height="6" style="fill:#eef6ff" width="6" x="20.99979" y="39"/><path d="M27,46H21a.99942.99942,0,0,1-1-1V39a.99942.99942,0,0,1,1-1h6a.99942.99942,0,0,1,1,1v6A.99942.99942,0,0,1,27,46Zm-5-2h4V40H22Z" style="fill:#6d6daa"/><rect height="6" style="fill:#eef6ff" width="6" x="26.99979" y="39"/><path d="M33,46H27a.99942.99942,0,0,1-1-1V39a.99942.99942,0,0,1,1-1h6a.99942.99942,0,0,1,1,1v6A.99942.99942,0,0,1,33,46Zm-5-2h4V40H28Z" style="fill:#6d6daa"/><rect height="6" style="fill:#eef6ff" width="6" x="32.99979" y="39"/><path d="M39,46H33a.99942.99942,0,0,1-1-1V39a.99942.99942,0,0,1,1-1h6a.99942.99942,0,0,1,1,1v6A.99942.99942,0,0,1,39,46Zm-5-2h4V40H34Z" style="fill:#6d6daa"/><rect height="6" style="fill:#ff9797" width="6" x="38.99979" y="39"/><path d="M45,46H39a.99942.99942,0,0,1-1-1V39a.99942.99942,0,0,1,1-1h6a.99942.99942,0,0,1,1,1v6A.99942.99942,0,0,1,45,46Zm-5-2h4V40H40Z" style="fill:#6d6daa"/><rect height="6" style="fill:#ff9797" width="6" x="44.99979" y="39"/><path d="M51,46H45a.99942.99942,0,0,1-1-1V39a.99942.99942,0,0,1,1-1h6a.99942.99942,0,0,1,1,1v6A.99942.99942,0,0,1,51,46Zm-5-2h4V40H46Z" style="fill:#6d6daa"/><rect height="6" style="fill:#eef6ff" width="6" x="8.99979" y="45"/><path d="M15,52H9a.99942.99942,0,0,1-1-1V45a.99942.99942,0,0,1,1-1h6a.99942.99942,0,0,1,1,1v6A.99942.99942,0,0,1,15,52Zm-5-2h4V46H10Z" style="fill:#6d6daa"/><rect height="6" style="fill:#eef6ff" width="6" x="14.99979" y="45"/><path d="M21,52H15a.99942.99942,0,0,1-1-1V45a.99942.99942,0,0,1,1-1h6a.99942.99942,0,0,1,1,1v6A.99942.99942,0,0,1,21,52Zm-5-2h4V46H16Z" style="fill:#6d6daa"/><rect height="6" style="fill:#eef6ff" width="6" x="20.99979" y="45"/><path d="M27,52H21a.99942.99942,0,0,1-1-1V45a.99942.99942,0,0,1,1-1h6a.99942.99942,0,0,1,1,1v6A.99942.99942,0,0,1,27,52Zm-5-2h4V46H22Z" style="fill:#6d6daa"/><rect height="6" style="fill:#eef6ff" width="6" x="26.99979" y="45"/><path d="M33,52H27a.99942.99942,0,0,1-1-1V45a.99942.99942,0,0,1,1-1h6a.99942.99942,0,0,1,1,1v6A.99942.99942,0,0,1,33,52Zm-5-2h4V46H28Z" style="fill:#6d6daa"/><rect height="6" style="fill:#eef6ff" width="6" x="26.99979" y="21"/><path d="M33,28H27a.99942.99942,0,0,1-1-1V21a.99942.99942,0,0,1,1-1h6a.99942.99942,0,0,1,1,1v6A.99942.99942,0,0,1,33,28Zm-5-2h4V22H28Z" style="fill:#6d6daa"/><rect height="6" style="fill:#eef6ff" width="6" x="32.99979" y="21"/><path d="M39,28H33a.99942.99942,0,0,1-1-1V21a.99942.99942,0,0,1,1-1h6a.99942.99942,0,0,1,1,1v6A.99942.99942,0,0,1,39,28Zm-5-2h4V22H34Z" style="fill:#6d6daa"/><rect height="6" style="fill:#ff9797" width="6" x="38.99979" y="21"/><path d="M45,28H39a.99942.99942,0,0,1-1-1V21a.99942.99942,0,0,1,1-1h6a.99942.99942,0,0,1,1,1v6A.99942.99942,0,0,1,45,28Zm-5-2h4V22H40Z" style="fill:#6d6daa"/><rect height="6" style="fill:#ff9797" width="6" x="44.99979" y="21"/><path d="M51,28H45a.99942.99942,0,0,1-1-1V21a.99942.99942,0,0,1,1-1h6a.99942.99942,0,0,1,1,1v6A.99942.99942,0,0,1,51,28Zm-5-2h4V22H46Z" style="fill:#6d6daa"/><path d="M24,37.5A1.5,1.5,0,1,1,25.5,36,1.50164,1.50164,0,0,1,24,37.5Zm0-2a.5.5,0,1,0,.5.5A.501.501,0,0,0,24,35.5Z" style="fill:#6d6daa;opacity:0.5"/><path d="M42,43.5A1.5,1.5,0,1,1,43.5,42,1.50164,1.50164,0,0,1,42,43.5Zm0-2a.5.5,0,1,0,.5.5A.501.501,0,0,0,42,41.5Z" style="fill:#6d6daa;opacity:0.5"/><path d="M48,43.5A1.5,1.5,0,1,1,49.5,42,1.50164,1.50164,0,0,1,48,43.5Zm0-2a.5.5,0,1,0,.5.5A.501.501,0,0,0,48,41.5Z" style="fill:#6d6daa;opacity:0.5"/><path d="M42,37.5A1.5,1.5,0,1,1,43.5,36,1.50164,1.50164,0,0,1,42,37.5Zm0-2a.5.5,0,1,0,.5.5A.501.501,0,0,0,42,35.5Z" style="fill:#6d6daa;opacity:0.5"/><path d="M48,37.5A1.5,1.5,0,1,1,49.5,36,1.50164,1.50164,0,0,1,48,37.5Zm0-2a.5.5,0,1,0,.5.5A.501.501,0,0,0,48,35.5Z" style="fill:#6d6daa;opacity:0.5"/><path d="M42,31.5A1.5,1.5,0,1,1,43.5,30,1.50164,1.50164,0,0,1,42,31.5Zm0-2a.5.5,0,1,0,.5.5A.501.501,0,0,0,42,29.5Z" style="fill:#6d6daa;opacity:0.5"/><path d="M48,31.5A1.5,1.5,0,1,1,49.5,30,1.50164,1.50164,0,0,1,48,31.5Zm0-2a.5.5,0,1,0,.5.5A.501.501,0,0,0,48,29.5Z" style="fill:#6d6daa;opacity:0.5"/><path d="M42,25.5A1.5,1.5,0,1,1,43.5,24,1.50164,1.50164,0,0,1,42,25.5Zm0-2a.5.5,0,1,0,.5.5A.501.501,0,0,0,42,23.5Z" style="fill:#6d6daa;opacity:0.5"/><path d="M48,25.5A1.5,1.5,0,1,1,49.5,24,1.50164,1.50164,0,0,1,48,25.5Zm0-2a.5.5,0,1,0,.5.5A.501.501,0,0,0,48,23.5Z" style="fill:#6d6daa;opacity:0.5"/><path d="M55,9v8H5V9A2.00588,2.00588,0,0,1,7,7H53A2.00588,2.00588,0,0,1,55,9Z" style="fill:#ff9797"/><rect height="3" style="fill:#750000;opacity:0.200000002980232" width="50" x="5" y="14"/><path d="M53,7H7A2.00587,2.00587,0,0,0,5,9v3a2.00587,2.00587,0,0,1,2-2H53a2.00587,2.00587,0,0,1,2,2V9A2.00587,2.00587,0,0,0,53,7Z" style="fill:#fff;opacity:0.5"/><path d="M55,18H5a.99942.99942,0,0,1-1-1V9A3.00328,3.00328,0,0,1,7,6H53a3.00328,3.00328,0,0,1,3,3v8A.99942.99942,0,0,1,55,18ZM6,16H54V9a1.00068,1.00068,0,0,0-1-1H7A1.00068,1.00068,0,0,0,6,9Z" style="fill:#6d6daa"/><path d="M16,11h0a2,2,0,0,1-2-2V5a2,2,0,0,1,2-2h0a2,2,0,0,1,2,2V9A2,2,0,0,1,16,11Z" style="fill:#eef6ff"/><path d="M16,12a3.00328,3.00328,0,0,1-3-3V5a3,3,0,0,1,6,0V9A3.00328,3.00328,0,0,1,16,12Zm0-8a1.00068,1.00068,0,0,0-1,1V9a1,1,0,0,0,2,0V5A1.00068,1.00068,0,0,0,16,4Z" style="fill:#6d6daa"/><path d="M16,11h0a2,2,0,0,1-2-2V5a2,2,0,0,1,2-2h0a2,2,0,0,1,2,2V9A2,2,0,0,1,16,11Z" style="fill:#ced8ee"/><path d="M16,6a1.99994,1.99994,0,0,0-2,2V5a2,2,0,0,1,4,0V8A1.99994,1.99994,0,0,0,16,6Z" style="fill:#fff;opacity:0.75"/><path d="M16,8a1.99994,1.99994,0,0,1-2-2V9a2,2,0,0,0,4,0V6A1.99994,1.99994,0,0,1,16,8Z" style="fill:#2c4b75;opacity:0.2"/><path d="M16,12a3.00328,3.00328,0,0,1-3-3V5a3,3,0,0,1,6,0V9A3.00328,3.00328,0,0,1,16,12Zm0-8a1.00068,1.00068,0,0,0-1,1V9a1,1,0,0,0,2,0V5A1.00068,1.00068,0,0,0,16,4Z" style="fill:#6d6daa"/><path d="M44,11h0a2,2,0,0,1-2-2V5a2,2,0,0,1,2-2h0a2,2,0,0,1,2,2V9A2,2,0,0,1,44,11Z" style="fill:#eef6ff"/><path d="M44,12a3.00328,3.00328,0,0,1-3-3V5a3,3,0,0,1,6,0V9A3.00328,3.00328,0,0,1,44,12Zm0-8a1.00068,1.00068,0,0,0-1,1V9a1,1,0,0,0,2,0V5A1.00068,1.00068,0,0,0,44,4Z" style="fill:#6d6daa"/><path d="M44,11h0a2,2,0,0,1-2-2V5a2,2,0,0,1,2-2h0a2,2,0,0,1,2,2V9A2,2,0,0,1,44,11Z" style="fill:#eef6ff"/><path d="M44,12a3.00328,3.00328,0,0,1-3-3V5a3,3,0,0,1,6,0V9A3.00328,3.00328,0,0,1,44,12Zm0-8a1.00068,1.00068,0,0,0-1,1V9a1,1,0,0,0,2,0V5A1.00068,1.00068,0,0,0,44,4Z" style="fill:#6d6daa"/><path d="M44,11h0a2,2,0,0,1-2-2V5a2,2,0,0,1,2-2h0a2,2,0,0,1,2,2V9A2,2,0,0,1,44,11Z" style="fill:#ced8ee"/><path d="M44,6a1.99994,1.99994,0,0,0-2,2V5a2,2,0,0,1,4,0V8A1.99994,1.99994,0,0,0,44,6Z" style="fill:#fff;opacity:0.75"/><path d="M44,8a1.99994,1.99994,0,0,1-2-2V9a2,2,0,0,0,4,0V6A1.99994,1.99994,0,0,1,44,8Z" style="fill:#2c4b75;opacity:0.2"/><path d="M44,12a3.00328,3.00328,0,0,1-3-3V5a3,3,0,0,1,6,0V9A3.00328,3.00328,0,0,1,44,12Zm0-8a1.00068,1.00068,0,0,0-1,1V9a1,1,0,0,0,2,0V5A1.00068,1.00068,0,0,0,44,4Z" style="fill:#6d6daa"/></svg>