<?xml version="1.0" ?><!DOCTYPE svg  PUBLIC '-//W3C//DTD SVG 1.1//EN'  'http://www.w3.org/Graphics/SVG/1.1/DTD/svg11.dtd'><svg enable-background="new 0 0 32 32" height="32px" id="Layer_1" version="1.1" viewBox="0 0 32 32" width="32px" xml:space="preserve" xmlns="http://www.w3.org/2000/svg" xmlns:xlink="http://www.w3.org/1999/xlink"><g id="Contract"><g id="customer_survey_2_"><polygon fill="#ECEFF1" points="24.5,30.5 2.5,30.5 2.5,7.5 8.5,1.5 24.5,1.5   "/><path d="M24,2H10.5C10.224,2,10,1.776,10,1.5S10.224,1,10.5,1H24c0.276,0,0.5,0.224,0.5,0.5S24.276,2,24,2z" fill="#455A64"/><path d="M24.5,31h-22C2.224,31,2,30.776,2,30.5v-23C2,7.224,2.224,7,2.5,7S3,7.224,3,7.5V30h21V17.532    c0-0.276,0.224-0.5,0.5-0.5s0.5,0.224,0.5,0.5V30.5C25,30.776,24.776,31,24.5,31z" fill="#455A64"/><g><g><polygon fill="#65F0CD" points="8.5,7.5 8.5,1.5 2.521,7.5     "/><path d="M8.5,8H2.521C2.319,8,2.138,7.878,2.06,7.691C1.982,7.505,2.024,7.29,2.167,7.147l5.979-6      c0.144-0.145,0.358-0.186,0.546-0.109C8.878,1.115,9,1.298,9,1.5v6C9,7.776,8.776,8,8.5,8z M3.726,7H8V2.71L3.726,7z" fill="#455A64"/></g></g><g><g><g><path d="M26.51,13.586c0.256,0.105,0.547-0.016,0.655-0.27l3.673-8.761c0.427-1.019-0.053-2.19-1.07-2.617       l-1.842-0.773c-0.258-0.106-0.55,0.014-0.656,0.267c-0.107,0.255,0.013,0.549,0.268,0.653l1.844,0.775       c0.51,0.212,0.75,0.799,0.535,1.309l-3.674,8.762C26.135,13.183,26.256,13.478,26.51,13.586z" fill="#455A64"/></g></g><g><g><path d="M19.191,18.104c-0.318,0.763,0.043,1.646,0.805,1.965l0,0c0.758,0.318,1.645-0.042,1.963-0.805       l6.574-15.676c0.318-0.762-0.043-1.645-0.804-1.964l0,0c-0.76-0.319-1.644,0.042-1.962,0.805L19.191,18.104z" fill="#FFFFFF"/></g><path d="M26.728,3.121c0.212-0.508,0.679-0.831,1.192-0.899c0.31,0.412,0.405,0.97,0.191,1.48l-6.574,15.676      c-0.213,0.51-0.682,0.831-1.191,0.901c-0.311-0.413-0.405-0.973-0.192-1.48L26.728,3.121z" fill="#FF8A80"/><g><path d="M18.73,17.912l6.576-15.677c0.426-1.018,1.6-1.498,2.619-1.07c1.014,0.427,1.494,1.599,1.068,2.617       l-6.575,15.676c-0.427,1.02-1.6,1.498-2.616,1.071C18.785,20.104,18.305,18.93,18.73,17.912z M26.228,2.621l-6.574,15.678       c-0.213,0.508,0.026,1.096,0.536,1.308c0.508,0.214,1.094-0.025,1.309-0.534l6.576-15.677c0.209-0.509-0.028-1.096-0.537-1.311       C27.028,1.875,26.439,2.113,26.228,2.621z" fill="#455A64"/></g></g><g><path d="M22.538,17.883c0,0-1.729,4.122-2.321,5.534c-0.591,1.411-1.662,3.639-2.93,3.107      c-1.269-0.531-0.416-2.886,0.164-4.27c0.582-1.384,2.322-5.533,2.322-5.533L22.538,17.883z" fill="#FFFFFF"/><path d="M18.415,26.417c0.402-0.62,0.742-1.365,0.993-1.966c0.593-1.412,2.709-6.454,2.709-6.454l-1.384-0.582      c0,0-1.741,4.149-2.321,5.533c-0.422,1.006-0.97,2.511-0.758,3.469H18.415z" fill="#FF8A80"/><path d="M16.99,22.062l2.32-5.532c0.107-0.256,0.402-0.376,0.655-0.268l2.766,1.159      c0.256,0.106,0.376,0.401,0.27,0.655l-2.322,5.534c-0.476,1.136-1.739,4.149-3.584,3.374      C15.25,26.212,16.514,23.196,16.99,22.062z M20.041,17.377l-2.129,5.071c-1.178,2.807-0.773,3.469-0.432,3.615      c0.346,0.144,1.1-0.034,2.275-2.841l2.127-5.072L20.041,17.377z" fill="#455A64"/></g><g><path d="M16.32,28.83c0.256,0.106,0.549-0.014,0.655-0.268l0.192-0.462c0.108-0.256-0.012-0.547-0.268-0.654      c-0.254-0.106-0.545,0.013-0.654,0.269l-0.193,0.461C15.946,28.431,16.064,28.724,16.32,28.83z" fill="#455A64"/></g></g></g><g><path d="M5.5,16.5h6H5.5z" fill="#80D8FF"/><path d="M11.5,17h-6C5.224,17,5,16.776,5,16.5S5.224,16,5.5,16h6c0.276,0,0.5,0.224,0.5,0.5S11.776,17,11.5,17z" fill="#455A64"/></g><g><path d="M5.5,14.5h4H5.5z" fill="#80D8FF"/><path d="M9.5,15h-4C5.224,15,5,14.776,5,14.5S5.224,14,5.5,14h4c0.276,0,0.5,0.224,0.5,0.5S9.776,15,9.5,15z" fill="#455A64"/></g><g><path d="M15.496,14.5h3H15.496z" fill="#80D8FF"/><path d="M18.496,15h-3c-0.276,0-0.5-0.224-0.5-0.5s0.224-0.5,0.5-0.5h3c0.276,0,0.5,0.224,0.5,0.5    S18.772,15,18.496,15z" fill="#455A64"/></g><g><path d="M11.496,14.5h2H11.496z" fill="#80D8FF"/><path d="M13.496,15h-2c-0.276,0-0.5-0.224-0.5-0.5s0.224-0.5,0.5-0.5h2c0.276,0,0.5,0.224,0.5,0.5    S13.772,15,13.496,15z" fill="#455A64"/></g><g><path d="M5.496,12.5h3H5.496z" fill="#80D8FF"/><path d="M8.496,13h-3c-0.276,0-0.5-0.224-0.5-0.5S5.22,12,5.496,12h3c0.276,0,0.5,0.224,0.5,0.5S8.772,13,8.496,13    z" fill="#455A64"/></g><g><path d="M10.5,12.5h9H10.5z" fill="#80D8FF"/><path d="M19.5,13h-9c-0.276,0-0.5-0.224-0.5-0.5s0.224-0.5,0.5-0.5h9c0.276,0,0.5,0.224,0.5,0.5S19.776,13,19.5,13    z" fill="#455A64"/></g><g><path d="M15.5,10.5h4H15.5z" fill="#80D8FF"/><path d="M19.5,11h-4c-0.276,0-0.5-0.224-0.5-0.5s0.224-0.5,0.5-0.5h4c0.276,0,0.5,0.224,0.5,0.5S19.776,11,19.5,11    z" fill="#455A64"/></g><g><path d="M5.5,10.5h8H5.5z" fill="#80D8FF"/><path d="M13.5,11h-8C5.224,11,5,10.776,5,10.5S5.224,10,5.5,10h8c0.276,0,0.5,0.224,0.5,0.5S13.776,11,13.5,11z" fill="#455A64"/></g><path d="M13.367,29.011c-1.096,0-1.221-0.117-1.333-0.225c-0.169-0.159-0.375-0.579-0.57-1.06   c-0.424,0.586-1.061,1.224-1.826,1.224c-0.613,0-0.888-0.32-0.997-0.512c-0.422-0.738,0.18-1.977,0.576-2.649   c0.051-0.087,0.125-0.203,0.214-0.341c1.009-1.574,1.102-2.12,1.003-2.302c-0.025-0.046-0.162-0.095-0.404-0.095   c-0.526,0-1.535,2.585-1.866,3.434c-0.317,0.813-0.506,1.287-0.685,1.545c-0.521,0.756-1.411,1.071-2.223,0.793   c-0.77-0.269-1.229-1.006-1.172-1.879c0.089-1.336,0.954-1.777,1.399-1.824c0.264-0.03,0.521,0.17,0.55,0.444   c0.028,0.271-0.164,0.514-0.432,0.549c-0.057,0.01-0.468,0.113-0.52,0.897c-0.028,0.424,0.16,0.748,0.503,0.868   c0.294,0.103,0.746,0.051,1.071-0.417c0.12-0.175,0.352-0.768,0.575-1.34c0.9-2.307,1.678-4.07,2.798-4.07   c0.781,0,1.128,0.334,1.281,0.615c0.463,0.847-0.259,2.104-1.038,3.32c-0.08,0.125-0.147,0.23-0.194,0.31   c-0.491,0.834-0.648,1.502-0.569,1.646c-0.001-0.005,0.04,0.008,0.129,0.008c0.503,0,1.179-0.946,1.477-1.586   c0.086-0.185,0.28-0.31,0.479-0.288c0.204,0.01,0.38,0.143,0.447,0.335c0.205,0.593,0.487,1.302,0.639,1.574   c0.318,0.032,1.13,0.026,1.801-0.004c0.302-0.017,0.51,0.203,0.521,0.478c0.013,0.276-0.201,0.51-0.477,0.522   C14.05,29.002,13.671,29.011,13.367,29.011z" fill="#455A64"/></g></svg>