<?xml version="1.0" ?><svg id="Layer_1" style="enable-background:new 0 0 136 136;" version="1.1" viewBox="0 0 136 136" xml:space="preserve" xmlns="http://www.w3.org/2000/svg" xmlns:xlink="http://www.w3.org/1999/xlink"><style type="text/css">
	.st0{fill:#E1E1E3;}
	.st1{fill:#EAC13B;}
	.st2{fill:#313D65;}
	.st3{fill:#B8B8BA;}
	.st4{fill:#F0DE6E;}
	.st5{fill:#7E97AB;}
	.st6{fill:#97D9EC;}
	.st7{fill:#21B4E1;}
	.st8{fill:#F26A64;}
	.st9{fill:#FFFFFF;}
	.st10{fill:#D84645;}
	.st11{fill:#DFDFD2;}
	.st12{fill:#6DC392;}
	.st13{fill:#4BA872;}
	.st14{fill:#F26A64;stroke:#313D65;stroke-width:1.5;stroke-linecap:round;stroke-linejoin:round;stroke-miterlimit:10;}
	.st15{fill:none;stroke:#313D65;stroke-width:1.5;stroke-linecap:round;stroke-linejoin:round;stroke-miterlimit:10;}
	.st16{fill:#010101;stroke:#313D65;stroke-width:1.5;stroke-linecap:round;stroke-linejoin:round;stroke-miterlimit:10;}
</style><g><g id="XMLID_34_"><g><g><g><circle class="st0" cx="68" cy="71.1" r="60.2"/></g></g></g></g><g><g><g><g><g><path class="st4" d="M112.9,111.2c-1.6,1.8-3.3,3.5-5.1,5.1h-7.2c-1.5,0-2.6-1.4-2.3-2.9l1.6-7.8h11.9L112.9,111.2z"/></g></g></g><g><g><g><path class="st2" d="M107.8,117h-7.2c-0.9,0-1.8-0.4-2.4-1.1c-0.6-0.7-0.8-1.7-0.6-2.6l1.6-7.8c0.1-0.3,0.4-0.6,0.7-0.6h11.9        c0.3,0,0.6,0.2,0.7,0.6l1.1,5.5c0,0.2,0,0.4-0.2,0.6c-1.6,1.8-3.4,3.5-5.2,5.1C108.1,116.9,108,117,107.8,117z M100.4,106.3        l-1.5,7.2c-0.1,0.5,0,1,0.3,1.4c0.3,0.4,0.8,0.6,1.3,0.6h6.9c1.6-1.4,3.2-3,4.6-4.6l-1-4.6H100.4z"/></g></g></g></g><g><g><g><g><path class="st4" d="M35.6,116.3h-7.4c-1.7-1.5-3.4-3.2-5-4.9l1.2-5.7h11.9l1.6,7.8C38.3,114.9,37.1,116.3,35.6,116.3z"/></g></g></g><g><g><g><path class="st2" d="M35.6,117h-7.4c-0.2,0-0.3-0.1-0.5-0.2c-1.8-1.6-3.4-3.2-5-5c-0.2-0.2-0.2-0.4-0.2-0.6l1.2-5.7        c0.1-0.3,0.4-0.6,0.7-0.6h11.9c0.3,0,0.6,0.2,0.7,0.6l1.6,7.8c0.2,0.9,0,1.8-0.6,2.6C37.4,116.6,36.5,117,35.6,117z         M28.5,115.6h7.1c0.5,0,1-0.2,1.3-0.6c0.3-0.4,0.4-0.9,0.3-1.4l-1.5-7.2H25l-1,4.8C25.4,112.7,26.9,114.2,28.5,115.6z"/></g></g></g></g><g><g><g><g><g><rect class="st1" height="25.5" width="17.8" x="59.1" y="37.2"/></g></g></g><g><g><g><path class="st2" d="M76.9,63.4H59.1c-0.4,0-0.7-0.3-0.7-0.7V37.2c0-0.4,0.3-0.7,0.7-0.7h17.8c0.4,0,0.7,0.3,0.7,0.7v25.5         C77.6,63.1,77.3,63.4,76.9,63.4z M59.8,62h16.4V37.9H59.8V62z"/></g></g></g></g><g><g><g><g><path class="st9" d="M37.5,100.5c-2.3-13-0.4-24.9,5.3-28.6v39.1h50.5V71.8c5.7,3.7,7.6,15.6,5.3,28.6h14         c1.6-21.3-5.5-34.8-11.5-42.4c-3.8-4.8-9.6-7.5-15.7-7.5H75.1L68,58.5l-7.1-7.9H50.7c-6.1,0-11.9,2.7-15.7,7.5         c-6,7.5-13.1,21.1-11.5,42.4H37.5z"/></g></g></g><g><g><g><path class="st2" d="M93.2,111.6H42.8c-0.4,0-0.7-0.3-0.7-0.7V73.3c-4.4,4.2-6,15-3.9,27c0,0.2,0,0.4-0.2,0.6         c-0.1,0.2-0.3,0.3-0.5,0.3h-14c-0.4,0-0.7-0.3-0.7-0.7c-1.6-21.4,5.5-35.1,11.6-42.9c3.9-4.9,9.9-7.8,16.3-7.8h10.2         c0.2,0,0.4,0.1,0.5,0.2l6.6,7.3l6.6-7.3c0.1-0.1,0.3-0.2,0.5-0.2h10.2c6.4,0,12.3,2.8,16.3,7.8c6.2,7.8,13.2,21.5,11.6,42.9         c0,0.4-0.3,0.7-0.7,0.7h-14c-0.2,0-0.4-0.1-0.5-0.3c-0.1-0.2-0.2-0.4-0.2-0.6c2.2-12.1,0.6-22.8-3.9-27.1v37.6         C93.9,111.3,93.6,111.6,93.2,111.6z M43.5,110.2h49V71.8c0-0.3,0.1-0.5,0.4-0.6c0.2-0.1,0.5-0.1,0.7,0         c5.7,3.7,8,15.1,5.7,28.5h12.5c1.4-20.6-5.4-33.8-11.4-41.2c-3.7-4.6-9.2-7.2-15.2-7.2h-9.8L68.5,59         c-0.1,0.1-0.3,0.2-0.5,0.2h0c-0.2,0-0.4-0.1-0.5-0.2l-6.9-7.7h-9.9c-6,0-11.5,2.6-15.2,7.3c-6,7.5-12.7,20.7-11.4,41.2h12.5         c-2.2-13.4,0-24.8,5.7-28.5c0.2-0.1,0.5-0.2,0.7,0c0.2,0.1,0.4,0.4,0.4,0.6V110.2z"/></g></g></g></g><g><g><g><g><g><path class="st5" d="M68.2,4.7c-9.6,0-17.5,4.9-17.5,16.8s8.5,13.2,18.1,13.2c9.6,0,16.8-1.2,16.8-13.2S77.8,4.7,68.2,4.7z"/></g></g></g><g><g><g><path class="st2" d="M68.9,35.4c-9.1,0-18.8-1.1-18.8-13.9C50,10.5,56.8,4,68.2,4c11.4,0,18.2,6.5,18.2,17.5          C86.3,34.3,78.1,35.4,68.9,35.4z M68.2,5.4c-10.6,0-16.8,5.9-16.8,16.1C51.4,33,59.7,34,68.9,34c9.1,0,16.1-0.9,16.1-12.5          C84.9,11.3,78.8,5.4,68.2,5.4z"/></g></g></g></g><g><g><g><g><path class="st4" d="M77,15.5c-7.2,4.1-12.8,3.5-17.5,0.4c-2.7-1.8-6.5-0.2-6.8,3c0,0.1,0,0.3,0,0.4v12.8          c0,8.5,6.9,15.4,15.4,15.4h0c8.5,0,15.4-6.9,15.4-15.4V19.4c0-0.9-0.2-1.8-0.7-2.5C81.7,14.9,79.1,14.4,77,15.5z"/></g></g></g><g><g><g><path class="st2" d="M68.2,48.3c-8.9,0-16.1-7.2-16.1-16.1V19.4c0-0.2,0-0.3,0-0.5c0.2-2.5,2.4-4.4,5-4.4c1,0,2,0.3,2.9,0.9          c2.4,1.6,4.9,2.4,7.5,2.4c2.8,0,5.9-0.9,9.2-2.8c0.8-0.5,1.7-0.7,2.6-0.7c1.8,0,3.4,0.9,4.2,2.3c0.5,0.9,0.8,1.8,0.8,2.8          v12.8C84.3,41.1,77.1,48.3,68.2,48.3z M57.1,15.9c-1.6,0-3.4,1.1-3.6,3.1c0,0.1,0,0.3,0,0.4v12.8c0,8.1,6.6,14.7,14.7,14.7          s14.7-6.6,14.7-14.7V19.4c0-0.7-0.2-1.5-0.6-2.1c-0.6-1-1.7-1.6-3-1.6c-0.7,0-1.3,0.2-1.9,0.5c-3.5,2-6.8,3-9.9,3h0          c-2.9,0-5.6-0.9-8.3-2.6C58.5,16.1,57.8,15.9,57.1,15.9z"/></g></g></g></g></g><g><g><g><g><polygon class="st10" points="71.7,59.3 64.3,59.3 59.7,67.1 64.3,72.2 71.7,72.2 76.3,67.1        "/></g></g></g><g><g><g><path class="st2" d="M71.7,72.9h-7.4c-0.2,0-0.4-0.1-0.5-0.2l-4.5-5.1c-0.2-0.2-0.2-0.6-0.1-0.8l4.5-7.8         c0.1-0.2,0.4-0.4,0.6-0.4h7.4c0.3,0,0.5,0.1,0.6,0.4l4.5,7.8c0.2,0.3,0.1,0.6-0.1,0.8l-4.5,5.1         C72.1,72.8,71.9,72.9,71.7,72.9z M64.6,71.5h6.8l4-4.4l-4.1-7h-6.6l-4.1,7L64.6,71.5z"/></g></g></g></g><g><g><g><g><g><polygon class="st11" points="68,58.5 59.7,67.1 54.4,50.6 59.1,47         "/></g></g></g><g><g><g><path class="st2" d="M59.7,67.8c-0.1,0-0.1,0-0.2,0c-0.2-0.1-0.4-0.2-0.5-0.5l-5.4-16.6c-0.1-0.3,0-0.6,0.2-0.8l4.7-3.5          c0.3-0.2,0.7-0.2,1,0.1L68.6,58c0.2,0.3,0.2,0.7,0,0.9l-8.3,8.7C60.1,67.8,59.9,67.8,59.7,67.8z M55.2,50.8l4.9,15l7-7.4          L59,48L55.2,50.8z"/></g></g></g></g><g><g><g><g><polygon class="st11" points="81.6,50.6 76.3,67.1 68,58.5 76.9,47         "/></g></g></g><g><g><g><path class="st2" d="M76.3,67.8c-0.2,0-0.4-0.1-0.5-0.2L67.5,59c-0.2-0.3-0.3-0.6,0-0.9l8.9-11.4c0.2-0.3,0.7-0.4,1-0.1          l4.7,3.5c0.2,0.2,0.3,0.5,0.2,0.8l-5.4,16.6c-0.1,0.2-0.3,0.4-0.5,0.5C76.4,67.8,76.3,67.8,76.3,67.8z M68.9,58.4l7,7.4          l4.9-15L77,48L68.9,58.4z"/></g></g></g></g></g><g><g><g><g><polygon class="st8" points="73,93.2 68.1,98.5 63,93.2 64.3,72.2 71.7,72.2        "/></g></g></g><g><g><g><path class="st2" d="M68.1,99.2c-0.2,0-0.4-0.1-0.5-0.2l-5.1-5.3c-0.1-0.1-0.2-0.3-0.2-0.5l1.3-21c0-0.4,0.3-0.7,0.7-0.7h7.4         c0.4,0,0.7,0.3,0.7,0.7l1.3,21c0,0.2-0.1,0.4-0.2,0.5L68.6,99C68.5,99.1,68.3,99.2,68.1,99.2C68.1,99.2,68.1,99.2,68.1,99.2z          M63.7,93l4.4,4.5l4.2-4.5l-1.2-20.1h-6.1L63.7,93z"/></g></g></g></g></g><g><g><g><g><g><g><path class="st2" d="M38.2,101.3c-0.1,0-0.2,0-0.2,0c-0.4-0.1-0.6-0.5-0.4-0.9l11.9-32.5c0.1-0.4,0.5-0.6,0.9-0.4          c0.4,0.1,0.6,0.5,0.4,0.9l-11.9,32.5C38.8,101.1,38.5,101.3,38.2,101.3z"/></g></g></g></g><g><g><g><g><ellipse class="st12" cx="50.2" cy="68.1" rx="5.8" ry="5.8" transform="matrix(0.8408 -0.5414 0.5414 0.8408 -28.8588 37.9994)"/></g></g></g><g><g><g><path class="st2" d="M44.7,71.6c-2-3-1.1-7.1,2-9c3-1.9,7.1-1.1,9,2c2,3,1.1,7.1-2,9C50.7,75.5,46.6,74.7,44.7,71.6z           M47.4,63.7c-2.4,1.5-3.1,4.7-1.5,7.1c1.5,2.4,4.7,3.1,7.1,1.5c2.4-1.5,3.1-4.7,1.5-7.1C52.9,62.9,49.8,62.2,47.4,63.7z"/></g></g></g></g></g><g><g><g><g><g><path class="st2" d="M96.5,104.1c-0.3,0-0.6-0.2-0.7-0.5L83.9,71.1c-0.1-0.4,0.1-0.8,0.4-0.9c0.4-0.1,0.8,0.1,0.9,0.4          l11.9,32.5c0.1,0.4-0.1,0.8-0.4,0.9C96.6,104.1,96.6,104.1,96.5,104.1z"/></g></g></g></g><g><g><g><g><ellipse class="st12" cx="84.5" cy="70.9" rx="5.8" ry="5.8" transform="matrix(0.5414 -0.8408 0.8408 0.5414 -20.8457 103.5939)"/></g></g></g><g><g><g><path class="st2" d="M81,76.4c-3-2-3.9-6-2-9c2-3.1,6-3.9,9-2c1.5,0.9,2.5,2.4,2.8,4.1c0.4,1.7,0.1,3.5-0.9,4.9          C88.1,77.5,84,78.3,81,76.4z M80.2,68.1c-1.5,2.4-0.8,5.6,1.5,7.1c2.4,1.5,5.5,0.9,7.1-1.5c0.7-1.2,1-2.5,0.7-3.9          s-1.1-2.5-2.2-3.2C84.9,65.1,81.8,65.7,80.2,68.1z"/></g></g></g></g></g></g><g><g><g><g><path class="st5" d="M124.2,84.2v11.6h-1.3c-2.5,5.6-5.9,10.8-10,15.3c-1.6,1.8-3.3,3.5-5.1,5.1c-10.6,9.4-24.5,15-39.8,15        c-15.3,0-29.2-5.7-39.8-15c-1.7-1.5-3.4-3.2-5-4.9c-4.1-4.6-7.6-9.8-10.1-15.5h-1.3V84.2H124.2z"/></g></g></g><g><g><g><path class="st2" d="M68,132c-14.8,0-29.1-5.4-40.3-15.2c-1.8-1.6-3.5-3.2-5-5c-4.1-4.6-7.5-9.7-10.1-15.3h-0.9        c-0.4,0-0.7-0.3-0.7-0.7V84.2c0-0.4,0.3-0.7,0.7-0.7h112.4c0.4,0,0.7,0.3,0.7,0.7v11.6c0,0.4-0.3,0.7-0.7,0.7h-0.9        c-2.5,5.5-5.9,10.6-9.9,15.1c-1.6,1.8-3.4,3.5-5.2,5.1C97.1,126.6,82.8,132,68,132z M12.5,95.1h0.6c0.3,0,0.5,0.2,0.6,0.4        c2.5,5.6,5.9,10.8,10,15.3c1.5,1.7,3.2,3.3,4.9,4.9c10.9,9.6,24.8,14.9,39.3,14.9s28.5-5.3,39.3-14.9c1.8-1.6,3.5-3.3,5.1-5        c4-4.5,7.4-9.6,9.9-15.2c0.1-0.3,0.4-0.4,0.6-0.4h0.6V84.9h-111V95.1z"/></g></g></g></g><g><g><g><g><rect class="st3" height="11.6" width="120.4" x="7.8" y="84.2"/></g></g></g><g><g><g><path class="st2" d="M128.2,96.5H7.8c-0.4,0-0.7-0.3-0.7-0.7V84.2c0-0.4,0.3-0.7,0.7-0.7h120.4c0.4,0,0.7,0.3,0.7,0.7v11.6        C128.9,96.2,128.6,96.5,128.2,96.5z M8.5,95.1h119V84.9H8.5V95.1z"/></g></g></g></g></g></g></svg>