<?xml version="1.0" ?><!DOCTYPE svg  PUBLIC '-//W3C//DTD SVG 1.1//EN'  'http://www.w3.org/Graphics/SVG/1.1/DTD/svg11.dtd'><svg height="256px" style="shape-rendering:geometricPrecision; text-rendering:geometricPrecision; image-rendering:optimizeQuality; fill-rule:evenodd; clip-rule:evenodd" version="1.1" viewBox="0 0 65643 65643" width="256px" xml:space="preserve" xmlns="http://www.w3.org/2000/svg" xmlns:xlink="http://www.w3.org/1999/xlink"><defs><style type="text/css">
   <![CDATA[
    .fil0 {fill:none}
    .fil7 {fill:#76AACF}
    .fil6 {fill:#92BFE0}
    .fil8 {fill:#ADD2ED}
    .fil2 {fill:#E67C89}
    .fil1 {fill:#FA96A2}
    .fil3 {fill:#FCB0B9}
    .fil5 {fill:#396182;fill-rule:nonzero}
    .fil4 {fill:#6B605D;fill-rule:nonzero}
   ]]>
  </style></defs><g id="Layer_x0020_1"><g id="_302740776"><rect class="fil0" height="65643" width="65643"/><g><path class="fil1" d="M15984 25796c-8539,0 -15461,5788 -15461,12928 0,7140 6922,12928 15461,12928 928,0 1837,-68 2720,-199 837,1061 2759,2724 7025,3934 0,0 -2406,-1808 -2471,-5252l0 -1c4872,-2175 8188,-6469 8188,-11410 0,-7140 -6922,-12928 -15462,-12928z"/><path class="fil2" d="M30977 41417c220,-869 336,-1770 336,-2693 0,-5090 -3519,-9492 -8633,-11601 -10,219 -17,438 -17,659 0,5606 3276,10572 8314,13635z"/><path class="fil2" d="M23258 50135l0 0zm5915 -11411c0,6041 -3125,8642 -7998,10818 0,2425 2489,5047 4554,5845 0,0 -2406,-1808 -2471,-5252 4872,-2176 8188,-6470 8188,-11411 0,-7140 -6922,-12928 -15462,-12928 -398,0 -793,12 -1184,37 8031,552 14373,7110 14373,12891z"/><path class="fil3" d="M14800 25833c-7986,506 -14277,6084 -14277,12891 0,6774 6231,12331 14162,12883 -6626,-1486 -11511,-6620 -11511,-12725 0,-6453 5458,-11822 12660,-12944 -341,-46 -686,-80 -1034,-105z"/><path class="fil4" d="M15984 25273c1665,0 3273,216 4786,615 1566,413 3031,1024 4350,1799 248,145 331,464 186,712 -145,248 -464,331 -712,186 -1236,-725 -2613,-1299 -4089,-1689 -1423,-375 -2942,-577 -4521,-577 -4144,0 -7891,1400 -10598,3663 -2681,2243 -4341,5334 -4341,8742 0,3408 1660,6499 4341,8742 2707,2263 6454,3663 10598,3663 455,0 900,-16 1331,-47 442,-33 880,-82 1313,-146 206,-30 401,65 510,227 391,487 1032,1110 2068,1758 738,462 1671,933 2848,1372 -644,-949 -1283,-2340 -1317,-4149l0 -9 -2 0 0 0c0,-228 146,-422 350,-494 2232,-1004 4122,-2466 5488,-4235 1324,-1715 2154,-3721 2320,-5875 21,-288 272,-504 559,-482 288,21 503,272 482,559 -183,2364 -1090,4561 -2537,6435 -1410,1828 -3336,3349 -5604,4419 187,2775 2198,4874 2438,5066 -77,278 -365,439 -643,362 -2187,-621 -3779,-1361 -4933,-2083 -1020,-638 -1708,-1270 -2165,-1797 -363,48 -730,86 -1102,113 -468,34 -938,52 -1404,52 -4395,0 -8379,-1495 -11268,-3909 -2913,-2437 -4716,-5810 -4716,-9542 0,-3732 1803,-7105 4716,-9542 2889,-2415 6873,-3909 11268,-3909z"/><path class="fil5" d="M21688 34759c289,0 523,234 523,522 0,289 -234,523 -523,523l-15795 0c-288,0 -522,-234 -522,-523 0,-288 234,-522 522,-522l15795 0z"/><path class="fil5" d="M21688 38526c289,0 523,234 523,523 0,288 -234,522 -523,522l-8423 0c-289,0 -523,-234 -523,-522 0,-289 234,-523 523,-523l8423 0zm-11348 0c288,0 523,234 523,523 0,288 -235,522 -523,522l-4447 0c-288,0 -522,-234 -522,-522 0,-289 234,-523 522,-523l4447 0z"/><path class="fil5" d="M18435 42294c288,0 522,234 522,522 0,289 -234,523 -522,523l-2085 0c-289,0 -523,-234 -523,-523 0,-288 234,-522 523,-522l2085 0zm-4860 0c288,0 522,234 522,522 0,289 -234,523 -522,523l-7682 0c-288,0 -522,-234 -522,-523 0,-288 234,-522 522,-522l7682 0z"/><path class="fil6" d="M44970 10256c11129,0 20150,7543 20150,16849 0,9305 -9021,16848 -20150,16848 -1210,0 -2394,-89 -3545,-260 -1091,1384 -3595,3551 -9155,5128 0,0 3136,-2357 3220,-6845l0 -1c-6350,-2835 -10671,-8431 -10671,-14870 0,-9306 9022,-16849 20151,-16849z"/><path class="fil7" d="M61649 26198c0,11189 -12054,16700 -22267,15675 -1267,2283 -3529,5650 -7112,6948 5560,-1577 8064,-3744 9155,-5128 1151,171 2335,260 3545,260 11129,0 20150,-7543 20150,-16848 0,-9306 -9021,-16849 -20150,-16849 -491,0 -979,15 -1461,44 10143,607 18140,7493 18140,15898z"/><path class="fil5" d="M33551 22039c-289,0 -523,-234 -523,-522 0,-289 234,-523 523,-523l22606 0c288,0 522,234 522,523 0,288 -234,522 -522,522l-22606 0z"/><path class="fil5" d="M33551 26949c-289,0 -523,-234 -523,-522 0,-289 234,-523 523,-523l7196 0 10509 0c289,0 523,234 523,523 0,288 -234,522 -523,522l-10509 0 -7196 0zm21148 0c-289,0 -523,-234 -523,-522 0,-289 234,-523 523,-523l1458 0c288,0 522,234 522,523 0,288 -234,522 -522,522l-1458 0z"/><path class="fil5" d="M33551 31859c-289,0 -523,-234 -523,-522 0,-289 234,-523 523,-523l4132 0c289,0 523,234 523,523 0,288 -234,522 -523,522l-4132 0zm7226 0c-288,0 -522,-234 -522,-522 0,-289 234,-523 522,-523l15380 0c288,0 522,234 522,523 0,288 -234,522 -522,522l-15380 0z"/><path class="fil8" d="M41226 10547c-9340,1467 -16407,8322 -16407,16558 0,3898 1589,7499 4256,10357 672,719 1412,1392 2212,2011 42,33 84,65 127,97 583,443 1197,859 1840,1244 -652,-630 -1256,-1294 -1808,-1986 -45,-56 -89,-113 -134,-169 -2360,-3032 -3721,-6622 -3721,-10448 0,-7748 5556,-14451 13635,-17664z"/><path class="fil4" d="M44970 9733c5689,0 10846,1933 14583,5058 3762,3146 6090,7499 6090,12314 0,9594 -9256,17371 -20673,17371 -606,0 -1213,-23 -1818,-68 -509,-37 -1013,-90 -1510,-157 -585,689 -1483,1525 -2843,2376 -1493,934 -3554,1893 -6388,2696 -278,78 -566,-84 -643,-361 -61,-218 26,-443 201,-567 217,-170 2775,-2245 2988,-6091 -3172,-1477 -5833,-3636 -7702,-6240 -1878,-2618 -2959,-5683 -2959,-8959 0,-4815 2328,-9168 6090,-12314 3737,-3125 8894,-5058 14584,-5058zm13913 5858c-3555,-2973 -8475,-4812 -13913,-4812 -5439,0 -10359,1839 -13914,4812 -3530,2952 -5714,7023 -5714,11514 0,3053 1007,5910 2758,8351 1818,2532 4436,4622 7563,6026 204,71 350,265 350,493l0 1 -2 0 0 9c-49,2597 -1068,4521 -1982,5733 1774,-626 3151,-1309 4219,-1976 1395,-874 2251,-1717 2767,-2371 112,-142 294,-222 486,-195 568,85 1143,149 1724,191 568,42 1150,63 1745,63 10840,0 19627,-7309 19627,-16325 0,-4491 -2184,-8562 -5714,-11514z"/></g></g></g></svg>